<svg width="502" height="502" viewBox="0 0 502 502" fill="none" xmlns="http://www.w3.org/2000/svg">
<path d="M125 171C125 164.565 126.267 158.193 128.73 152.249C131.192 146.304 134.802 140.902 139.352 136.352C143.902 131.802 149.304 128.192 155.249 125.73C161.193 123.267 167.565 122 174 122C180.435 122 186.807 123.267 192.751 125.73C198.696 128.192 204.098 131.802 208.648 136.352C213.198 140.902 216.808 146.304 219.27 152.249C221.733 158.193 223 164.565 223 171L174 171L125 171Z" fill="white"/>
<path d="M152 171C152 168.111 152.569 165.25 153.675 162.581C154.78 159.912 156.401 157.487 158.444 155.444C160.487 153.401 162.912 151.78 165.581 150.675C168.25 149.569 171.111 149 174 149C176.889 149 179.75 149.569 182.419 150.675C185.088 151.78 187.513 153.401 189.556 155.444C191.599 157.487 193.22 159.912 194.325 162.581C195.431 165.25 196 168.111 196 171L174 171L152 171Z" fill="black"/>
<path d="M1 1V0H0V1H1ZM501 1H502V0H501V1ZM501 501V502H502V501H501ZM1 501H0V502H1V501ZM1 2H501V0H1V2ZM500 1V501H502V1H500ZM501 500H1V502H501V500ZM2 501V1H0V501H2Z" fill="#BF9961"/>
</svg>
