<svg width="502" height="502" viewBox="0 0 502 502" fill="none" xmlns="http://www.w3.org/2000/svg">
<path d="M350.49 339.342C344.622 317.44 331.691 298.088 313.702 284.285C295.714 270.482 273.674 263 251 263C228.326 263 206.286 270.482 188.298 284.285C170.309 298.088 157.378 317.44 151.51 339.342" stroke="black" stroke-width="16"/>
<path d="M1 1V0H0V1H1ZM501 1H502V0H501V1ZM501 501V502H502V501H501ZM1 501H0V502H1V501ZM1 2H501V0H1V2ZM500 1V501H502V1H500ZM501 500H1V502H501V500ZM2 501V1H0V501H2Z" fill="#BF9961"/>
</svg>
