<svg width="502" height="502" viewBox="0 0 502 502" fill="none" xmlns="http://www.w3.org/2000/svg">
<path d="M350.49 293.658C344.622 315.56 331.691 334.912 313.702 348.715C295.714 362.518 273.674 370 251 370C228.326 370 206.286 362.518 188.298 348.715C170.309 334.912 157.378 315.56 151.51 293.658" stroke="black" stroke-width="16"/>
<path d="M1 1V0H0V1H1ZM501 1H502V0H501V1ZM501 501V502H502V501H501ZM1 501H0V502H1V501ZM1 2H501V0H1V2ZM500 1V501H502V1H500ZM501 500H1V502H501V500ZM2 501V1H0V501H2Z" fill="#BF9961"/>
</svg>
