
    <svg width="100%" height="100%" fill="none" xmlns="http://www.w3.org/2000/svg">
        
<rect width="500" height="500" fill="#FCEEEF"/>

        
<circle cx="174" cy="171" r="49" fill="white"/>
<circle cx="174" cy="171" r="22" fill="black"/>
<path d="M1 1V0H0V1H1ZM501 1H502V0H501V1ZM501 501V502H502V501H501ZM1 501H0V502H1V501ZM1 2H501V0H1V2ZM500 1V501H502V1H500ZM501 500H1V502H501V500ZM2 501V1H0V501H2Z" fill="#BF9961"/>

        
<path d="M376 171C376 158.004 370.838 145.541 361.648 136.352C352.459 127.162 339.996 122 327 122C314.004 122 301.541 127.162 292.352 136.352C283.162 145.541 278 158.004 278 171L327 171H376Z" fill="white"/>
<path d="M349 171C349 165.165 346.682 159.569 342.556 155.444C338.431 151.318 332.835 149 327 149C321.165 149 315.569 151.318 311.444 155.444C307.318 159.569 305 165.165 305 171L327 171H349Z" fill="black"/>
<path d="M1 1V0H0V1H1ZM501 1H502V0H501V1ZM501 501V502H502V501H501ZM1 501H0V502H1V501ZM1 2H501V0H1V2ZM500 1V501H502V1H500ZM501 500H1V502H501V500ZM2 501V1H0V501H2Z" fill="#BF9961"/>

        
<path d="M350.49 293.658C344.622 315.56 331.691 334.912 313.702 348.715C295.714 362.518 273.674 370 251 370C228.326 370 206.286 362.518 188.298 348.715C170.309 334.912 157.378 315.56 151.51 293.658" stroke="black" stroke-width="16"/>
<path d="M1 1V0H0V1H1ZM501 1H502V0H501V1ZM501 501V502H502V501H501ZM1 501H0V502H1V501ZM1 2H501V0H1V2ZM500 1V501H502V1H500ZM501 500H1V502H501V500ZM2 501V1H0V501H2Z" fill="#BF9961"/>

        
<path d="M1 1V0H0V1H1ZM501 1H502V0H501V1ZM501 501V502H502V501H501ZM1 501H0V502H1V501ZM1 2H501V0H1V2ZM500 1V501H502V1H500ZM501 500H1V502H501V500ZM2 501V1H0V501H2Z" fill="#BF9961"/>

    </svg>
