
    <svg width="100%" height="100%" fill="none" xmlns="http://www.w3.org/2000/svg">
        
<rect width="500" height="500" fill="#FCEEEF"/>

        
<path d="M208.648 205.648C199.459 214.838 186.996 220 174 220C161.004 220 148.541 214.838 139.352 205.648C130.162 196.459 125 183.996 125 171C125 158.004 130.162 145.541 139.352 136.352L174 171L208.648 205.648Z" fill="white"/>
<path d="M189.556 186.556C185.431 190.682 179.835 193 174 193C168.165 193 162.569 190.682 158.444 186.556C154.318 182.431 152 176.835 152 171C152 165.165 154.318 159.569 158.444 155.444L174 171L189.556 186.556Z" fill="black"/>
<path d="M1 1V0H0V1H1ZM501 1H502V0H501V1ZM501 501V502H502V501H501ZM1 501H0V502H1V501ZM1 2H501V0H1V2ZM500 1V501H502V1H500ZM501 500H1V502H501V500ZM2 501V1H0V501H2Z" fill="#BF9961"/>

        
<path d="M376 171C376 183.996 370.838 196.459 361.648 205.648C352.459 214.838 339.996 220 327 220C314.004 220 301.541 214.838 292.352 205.648C283.162 196.459 278 183.996 278 171L327 171H376Z" fill="white"/>
<path d="M349 171C349 176.835 346.682 182.431 342.556 186.556C338.431 190.682 332.835 193 327 193C321.165 193 315.569 190.682 311.444 186.556C307.318 182.431 305 176.835 305 171L327 171H349Z" fill="black"/>
<path d="M1 1V0H0V1H1ZM501 1H502V0H501V1ZM501 501V502H502V501H501ZM1 501H0V502H1V501ZM1 2H501V0H1V2ZM500 1V501H502V1H500ZM501 500H1V502H501V500ZM2 501V1H0V501H2Z" fill="#BF9961"/>

        
<path d="M150.735 290.579C154.54 306.756 162.202 321.773 173.069 334.348C183.935 346.922 197.683 356.68 213.138 362.789C228.594 368.898 245.298 371.176 261.825 369.43C278.352 367.683 294.211 361.963 308.048 352.758" stroke="black" stroke-width="16"/>
<path d="M1 1V0H0V1H1ZM501 1H502V0H501V1ZM501 501V502H502V501H501ZM1 501H0V502H1V501ZM1 2H501V0H1V2ZM500 1V501H502V1H500ZM501 500H1V502H501V500ZM2 501V1H0V501H2Z" fill="#BF9961"/>

        
<path d="M446 1L474.579 50.5H417.421L446 1Z" fill="#3B636B"/>
<path d="M1 1V0H0V1H1ZM501 1H502V0H501V1ZM501 501V502H502V501H501ZM1 501H0V502H1V501ZM1 2H501V0H1V2ZM500 1V501H502V1H500ZM501 500H1V502H501V500ZM2 501V1H0V501H2Z" fill="#BF9961"/>

    </svg>
