
    <svg width="100%" height="100%" fill="none" xmlns="http://www.w3.org/2000/svg">
        
<rect width="500" height="500" fill="#DFDEFC"/>

        
<circle cx="174" cy="171" r="49" fill="white"/>
<circle cx="174" cy="171" r="22" fill="black"/>
<path d="M1 1V0H0V1H1ZM501 1H502V0H501V1ZM501 501V502H502V501H501ZM1 501H0V502H1V501ZM1 2H501V0H1V2ZM500 1V501H502V1H500ZM501 500H1V502H501V500ZM2 501V1H0V501H2Z" fill="#BF9961"/>

        
<circle cx="327" cy="171" r="49" fill="white"/>
<circle cx="327" cy="171" r="22" fill="black"/>
<path d="M1 1V0H0V1H1ZM501 1H502V0H501V1ZM501 501V502H502V501H501ZM1 501H0V502H1V501ZM1 2H501V0H1V2ZM500 1V501H502V1H500ZM501 500H1V502H501V500ZM2 501V1H0V501H2Z" fill="#BF9961"/>

        
<path d="M150.735 290.579C154.54 306.756 162.202 321.773 173.069 334.348C183.935 346.922 197.683 356.68 213.138 362.789C228.594 368.898 245.298 371.176 261.825 369.43C278.352 367.683 294.211 361.963 308.048 352.758" stroke="black" stroke-width="16"/>
<path d="M1 1V0H0V1H1ZM501 1H502V0H501V1ZM501 501V502H502V501H501ZM1 501H0V502H1V501ZM1 2H501V0H1V2ZM500 1V501H502V1H500ZM501 500H1V502H501V500ZM2 501V1H0V501H2Z" fill="#BF9961"/>

        
<path d="M1 1V0H0V1H1ZM501 1H502V0H501V1ZM501 501V502H502V501H501ZM1 501H0V502H1V501ZM1 2H501V0H1V2ZM500 1V501H502V1H500ZM501 500H1V502H501V500ZM2 501V1H0V501H2Z" fill="#BF9961"/>

    </svg>
