
    <svg width="100%" height="100%" fill="none" xmlns="http://www.w3.org/2000/svg">
        
<rect width="500" height="500" fill="#FCEEEF"/>

        
<path d="M125 171C125 164.565 126.267 158.193 128.73 152.249C131.192 146.304 134.802 140.902 139.352 136.352C143.902 131.802 149.304 128.192 155.249 125.73C161.193 123.267 167.565 122 174 122C180.435 122 186.807 123.267 192.751 125.73C198.696 128.192 204.098 131.802 208.648 136.352C213.198 140.902 216.808 146.304 219.27 152.249C221.733 158.193 223 164.565 223 171L174 171L125 171Z" fill="white"/>
<path d="M152 171C152 168.111 152.569 165.25 153.675 162.581C154.78 159.912 156.401 157.487 158.444 155.444C160.487 153.401 162.912 151.78 165.581 150.675C168.25 149.569 171.111 149 174 149C176.889 149 179.75 149.569 182.419 150.675C185.088 151.78 187.513 153.401 189.556 155.444C191.599 157.487 193.22 159.912 194.325 162.581C195.431 165.25 196 168.111 196 171L174 171L152 171Z" fill="black"/>
<path d="M1 1V0H0V1H1ZM501 1H502V0H501V1ZM501 501V502H502V501H501ZM1 501H0V502H1V501ZM1 2H501V0H1V2ZM500 1V501H502V1H500ZM501 500H1V502H501V500ZM2 501V1H0V501H2Z" fill="#BF9961"/>

        
<path d="M376 171C376 158.004 370.838 145.541 361.648 136.352C352.459 127.162 339.996 122 327 122C314.004 122 301.541 127.162 292.352 136.352C283.162 145.541 278 158.004 278 171L327 171H376Z" fill="white"/>
<path d="M349 171C349 165.165 346.682 159.569 342.556 155.444C338.431 151.318 332.835 149 327 149C321.165 149 315.569 151.318 311.444 155.444C307.318 159.569 305 165.165 305 171L327 171H349Z" fill="black"/>
<path d="M1 1V0H0V1H1ZM501 1H502V0H501V1ZM501 501V502H502V501H501ZM1 501H0V502H1V501ZM1 2H501V0H1V2ZM500 1V501H502V1H500ZM501 500H1V502H501V500ZM2 501V1H0V501H2Z" fill="#BF9961"/>

        
<path d="M350.49 339.342C344.622 317.44 331.691 298.088 313.702 284.285C295.714 270.482 273.674 263 251 263C228.326 263 206.286 270.482 188.298 284.285C170.309 298.088 157.378 317.44 151.51 339.342" stroke="black" stroke-width="16"/>
<path d="M1 1V0H0V1H1ZM501 1H502V0H501V1ZM501 501V502H502V501H501ZM1 501H0V502H1V501ZM1 2H501V0H1V2ZM500 1V501H502V1H500ZM501 500H1V502H501V500ZM2 501V1H0V501H2Z" fill="#BF9961"/>

        
<path d="M446 1L474.579 50.5H417.421L446 1Z" fill="#3B636B"/>
<path d="M1 1V0H0V1H1ZM501 1H502V0H501V1ZM501 501V502H502V501H501ZM1 501H0V502H1V501ZM1 2H501V0H1V2ZM500 1V501H502V1H500ZM501 500H1V502H501V500ZM2 501V1H0V501H2Z" fill="#BF9961"/>

    </svg>
