
    <svg width="100%" height="100%" fill="none" xmlns="http://www.w3.org/2000/svg">
        
<rect width="500" height="500" fill="#D7EFF3"/>

        
<circle cx="174" cy="171" r="49" fill="white"/>
<circle cx="174" cy="171" r="22" fill="black"/>
<path d="M1 1V0H0V1H1ZM501 1H502V0H501V1ZM501 501V502H502V501H501ZM1 501H0V502H1V501ZM1 2H501V0H1V2ZM500 1V501H502V1H500ZM501 500H1V502H501V500ZM2 501V1H0V501H2Z" fill="#BF9961"/>

        
<path d="M361.648 136.352C370.838 145.541 376 158.004 376 171C376 183.996 370.838 196.459 361.648 205.648C352.459 214.838 339.996 220 327 220C314.004 220 301.541 214.838 292.352 205.648L327 171L361.648 136.352Z" fill="white"/>
<path d="M342.556 155.444C346.682 159.569 349 165.165 349 171C349 176.835 346.682 182.431 342.556 186.556C338.431 190.682 332.835 193 327 193C321.165 193 315.569 190.682 311.444 186.556L327 171L342.556 155.444Z" fill="black"/>
<path d="M1 1V0H0V1H1ZM501 1H502V0H501V1ZM501 501V502H502V501H501ZM1 501H0V502H1V501ZM1 2H501V0H1V2ZM500 1V501H502V1H500ZM501 500H1V502H501V500ZM2 501V1H0V501H2Z" fill="#BF9961"/>

        
<path d="M350.49 339.342C344.622 317.44 331.691 298.088 313.702 284.285C295.714 270.482 273.674 263 251 263C228.326 263 206.286 270.482 188.298 284.285C170.309 298.088 157.378 317.44 151.51 339.342" stroke="black" stroke-width="16"/>
<path d="M1 1V0H0V1H1ZM501 1H502V0H501V1ZM501 501V502H502V501H501ZM1 501H0V502H1V501ZM1 2H501V0H1V2ZM500 1V501H502V1H500ZM501 500H1V502H501V500ZM2 501V1H0V501H2Z" fill="#BF9961"/>

        
<path d="M1 1V0H0V1H1ZM501 1H502V0H501V1ZM501 501V502H502V501H501ZM1 501H0V502H1V501ZM1 2H501V0H1V2ZM500 1V501H502V1H500ZM501 500H1V502H501V500ZM2 501V1H0V501H2Z" fill="#BF9961"/>

    </svg>
