
    <svg width="100%" height="100%" fill="none" xmlns="http://www.w3.org/2000/svg">
        
<rect width="500" height="500" fill="#D7EFF3"/>

        
<circle cx="174" cy="171" r="49" fill="white"/>
<circle cx="174" cy="171" r="22" fill="black"/>
<path d="M1 1V0H0V1H1ZM501 1H502V0H501V1ZM501 501V502H502V501H501ZM1 501H0V502H1V501ZM1 2H501V0H1V2ZM500 1V501H502V1H500ZM501 500H1V502H501V500ZM2 501V1H0V501H2Z" fill="#BF9961"/>

        
<path d="M376 171C376 183.996 370.838 196.459 361.648 205.648C352.459 214.838 339.996 220 327 220C314.004 220 301.541 214.838 292.352 205.648C283.162 196.459 278 183.996 278 171L327 171H376Z" fill="white"/>
<path d="M349 171C349 176.835 346.682 182.431 342.556 186.556C338.431 190.682 332.835 193 327 193C321.165 193 315.569 190.682 311.444 186.556C307.318 182.431 305 176.835 305 171L327 171H349Z" fill="black"/>
<path d="M1 1V0H0V1H1ZM501 1H502V0H501V1ZM501 501V502H502V501H501ZM1 501H0V502H1V501ZM1 2H501V0H1V2ZM500 1V501H502V1H500ZM501 500H1V502H501V500ZM2 501V1H0V501H2Z" fill="#BF9961"/>

        
<path d="M150.735 290.579C154.54 306.756 162.202 321.773 173.069 334.348C183.935 346.922 197.683 356.68 213.138 362.789C228.594 368.898 245.298 371.176 261.825 369.43C278.352 367.683 294.211 361.963 308.048 352.758" stroke="black" stroke-width="16"/>
<path d="M1 1V0H0V1H1ZM501 1H502V0H501V1ZM501 501V502H502V501H501ZM1 501H0V502H1V501ZM1 2H501V0H1V2ZM500 1V501H502V1H500ZM501 500H1V502H501V500ZM2 501V1H0V501H2Z" fill="#BF9961"/>

        
<circle cx="436" cy="34" r="33" fill="#7E3F9B"/>
<path d="M1 1V0H0V1H1ZM501 1H502V0H501V1ZM501 501V502H502V501H501ZM1 501H0V502H1V501ZM1 2H501V0H1V2ZM500 1V501H502V1H500ZM501 500H1V502H501V500ZM2 501V1H0V501H2Z" fill="#BF9961"/>

    </svg>
