
    <svg width="100%" height="100%" fill="none" xmlns="http://www.w3.org/2000/svg">
        
<rect width="500" height="500" fill="#D7EFF3"/>

        
<path d="M223 171C223 183.996 217.838 196.459 208.648 205.648C199.459 214.838 186.996 220 174 220C161.004 220 148.541 214.838 139.352 205.648C130.162 196.459 125 183.996 125 171L174 171H223Z" fill="white"/>
<path d="M196 171C196 176.835 193.682 182.431 189.556 186.556C185.431 190.682 179.835 193 174 193C168.165 193 162.569 190.682 158.444 186.556C154.318 182.431 152 176.835 152 171L174 171H196Z" fill="black"/>
<path d="M1 1V0H0V1H1ZM501 1H502V0H501V1ZM501 501V502H502V501H501ZM1 501H0V502H1V501ZM1 2H501V0H1V2ZM500 1V501H502V1H500ZM501 500H1V502H501V500ZM2 501V1H0V501H2Z" fill="#BF9961"/>

        
<path d="M376 171C376 158.004 370.838 145.541 361.648 136.352C352.459 127.162 339.996 122 327 122C314.004 122 301.541 127.162 292.352 136.352C283.162 145.541 278 158.004 278 171L327 171H376Z" fill="white"/>
<path d="M349 171C349 165.165 346.682 159.569 342.556 155.444C338.431 151.318 332.835 149 327 149C321.165 149 315.569 151.318 311.444 155.444C307.318 159.569 305 165.165 305 171L327 171H349Z" fill="black"/>
<path d="M1 1V0H0V1H1ZM501 1H502V0H501V1ZM501 501V502H502V501H501ZM1 501H0V502H1V501ZM1 2H501V0H1V2ZM500 1V501H502V1H500ZM501 500H1V502H501V500ZM2 501V1H0V501H2Z" fill="#BF9961"/>

        
<path d="M350.49 339.342C344.622 317.44 331.691 298.088 313.702 284.285C295.714 270.482 273.674 263 251 263C228.326 263 206.286 270.482 188.298 284.285C170.309 298.088 157.378 317.44 151.51 339.342" stroke="black" stroke-width="16"/>
<path d="M1 1V0H0V1H1ZM501 1H502V0H501V1ZM501 501V502H502V501H501ZM1 501H0V502H1V501ZM1 2H501V0H1V2ZM500 1V501H502V1H500ZM501 500H1V502H501V500ZM2 501V1H0V501H2Z" fill="#BF9961"/>

        
<path d="M1 1V0H0V1H1ZM501 1H502V0H501V1ZM501 501V502H502V501H501ZM1 501H0V502H1V501ZM1 2H501V0H1V2ZM500 1V501H502V1H500ZM501 500H1V502H501V500ZM2 501V1H0V501H2Z" fill="#BF9961"/>

    </svg>
