
    <svg width="100%" height="100%" fill="none" xmlns="http://www.w3.org/2000/svg">
        
<rect width="500" height="500" fill="#DFDEFC"/>

        
<path d="M208.648 205.648C199.459 214.838 186.996 220 174 220C161.004 220 148.541 214.838 139.352 205.648C130.162 196.459 125 183.996 125 171C125 158.004 130.162 145.541 139.352 136.352L174 171L208.648 205.648Z" fill="white"/>
<path d="M189.556 186.556C185.431 190.682 179.835 193 174 193C168.165 193 162.569 190.682 158.444 186.556C154.318 182.431 152 176.835 152 171C152 165.165 154.318 159.569 158.444 155.444L174 171L189.556 186.556Z" fill="black"/>
<path d="M1 1V0H0V1H1ZM501 1H502V0H501V1ZM501 501V502H502V501H501ZM1 501H0V502H1V501ZM1 2H501V0H1V2ZM500 1V501H502V1H500ZM501 500H1V502H501V500ZM2 501V1H0V501H2Z" fill="#BF9961"/>

        
<path d="M361.648 136.352C370.838 145.541 376 158.004 376 171C376 183.996 370.838 196.459 361.648 205.648C352.459 214.838 339.996 220 327 220C314.004 220 301.541 214.838 292.352 205.648L327 171L361.648 136.352Z" fill="white"/>
<path d="M342.556 155.444C346.682 159.569 349 165.165 349 171C349 176.835 346.682 182.431 342.556 186.556C338.431 190.682 332.835 193 327 193C321.165 193 315.569 190.682 311.444 186.556L327 171L342.556 155.444Z" fill="black"/>
<path d="M1 1V0H0V1H1ZM501 1H502V0H501V1ZM501 501V502H502V501H501ZM1 501H0V502H1V501ZM1 2H501V0H1V2ZM500 1V501H502V1H500ZM501 500H1V502H501V500ZM2 501V1H0V501H2Z" fill="#BF9961"/>

        
<g filter="url(#filter0_i_1_71)">
<path d="M362 267C362 296.439 350.305 324.672 329.489 345.489C308.672 366.305 280.439 378 251 378C221.561 378 193.328 366.305 172.511 345.489C151.695 324.672 140 296.439 140 267L251 267H362Z" fill="black"/>
</g>
<path d="M1 1V0H0V1H1ZM501 1H502V0H501V1ZM501 501V502H502V501H501ZM1 501H0V502H1V501ZM1 2H501V0H1V2ZM500 1V501H502V1H500ZM501 500H1V502H501V500ZM2 501V1H0V501H2Z" fill="#BF9961"/>
<defs>
<filter id="filter0_i_1_71" x="140" y="267" width="222" height="111" filterUnits="userSpaceOnUse" color-interpolation-filters="sRGB">
<feFlood flood-opacity="0" result="BackgroundImageFix"/>
<feBlend mode="normal" in="SourceGraphic" in2="BackgroundImageFix" result="shape"/>
<feColorMatrix in="SourceAlpha" type="matrix" values="0 0 0 0 0 0 0 0 0 0 0 0 0 0 0 0 0 0 127 0" result="hardAlpha"/>
<feOffset dy="24"/>
<feComposite in2="hardAlpha" operator="arithmetic" k2="-1" k3="1"/>
<feColorMatrix type="matrix" values="0 0 0 0 1 0 0 0 0 1 0 0 0 0 1 0 0 0 1 0"/>
<feBlend mode="normal" in2="shape" result="effect1_innerShadow_1_71"/>
</filter>
</defs>

        
<path d="M446 1L453.409 23.8024H477.385L457.988 37.8951L465.397 60.6976L446 46.6049L426.603 60.6976L434.012 37.8951L414.615 23.8024H438.591L446 1Z" fill="#C99100"/>
<path d="M1 1V0H0V1H1ZM501 1H502V0H501V1ZM501 501V502H502V501H501ZM1 501H0V502H1V501ZM1 2H501V0H1V2ZM500 1V501H502V1H500ZM501 500H1V502H501V500ZM2 501V1H0V501H2Z" fill="#BF9961"/>

    </svg>
