
    <svg width="100%" height="100%" fill="none" xmlns="http://www.w3.org/2000/svg">
        
<rect width="500" height="500" fill="#D7EFF3"/>

        
<path d="M208.648 205.648C199.459 214.838 186.996 220 174 220C161.004 220 148.541 214.838 139.352 205.648C130.162 196.459 125 183.996 125 171C125 158.004 130.162 145.541 139.352 136.352L174 171L208.648 205.648Z" fill="white"/>
<path d="M189.556 186.556C185.431 190.682 179.835 193 174 193C168.165 193 162.569 190.682 158.444 186.556C154.318 182.431 152 176.835 152 171C152 165.165 154.318 159.569 158.444 155.444L174 171L189.556 186.556Z" fill="black"/>
<path d="M1 1V0H0V1H1ZM501 1H502V0H501V1ZM501 501V502H502V501H501ZM1 501H0V502H1V501ZM1 2H501V0H1V2ZM500 1V501H502V1H500ZM501 500H1V502H501V500ZM2 501V1H0V501H2Z" fill="#BF9961"/>

        
<circle cx="327" cy="171" r="49" fill="white"/>
<circle cx="327" cy="171" r="22" fill="black"/>
<path d="M1 1V0H0V1H1ZM501 1H502V0H501V1ZM501 501V502H502V501H501ZM1 501H0V502H1V501ZM1 2H501V0H1V2ZM500 1V501H502V1H500ZM501 500H1V502H501V500ZM2 501V1H0V501H2Z" fill="#BF9961"/>

        
<path d="M350.49 293.658C344.622 315.56 331.691 334.912 313.702 348.715C295.714 362.518 273.674 370 251 370C228.326 370 206.286 362.518 188.298 348.715C170.309 334.912 157.378 315.56 151.51 293.658" stroke="black" stroke-width="16"/>
<path d="M1 1V0H0V1H1ZM501 1H502V0H501V1ZM501 501V502H502V501H501ZM1 501H0V502H1V501ZM1 2H501V0H1V2ZM500 1V501H502V1H500ZM501 500H1V502H501V500ZM2 501V1H0V501H2Z" fill="#BF9961"/>

        
<path d="M446 1L474.579 50.5H417.421L446 1Z" fill="#3B636B"/>
<path d="M1 1V0H0V1H1ZM501 1H502V0H501V1ZM501 501V502H502V501H501ZM1 501H0V502H1V501ZM1 2H501V0H1V2ZM500 1V501H502V1H500ZM501 500H1V502H501V500ZM2 501V1H0V501H2Z" fill="#BF9961"/>

    </svg>
