
    <svg width="100%" height="100%" fill="none" xmlns="http://www.w3.org/2000/svg">
        
<rect width="500" height="500" fill="#DFDEFC"/>

        
<path d="M223 171C223 183.996 217.838 196.459 208.648 205.648C199.459 214.838 186.996 220 174 220C161.004 220 148.541 214.838 139.352 205.648C130.162 196.459 125 183.996 125 171L174 171H223Z" fill="white"/>
<path d="M196 171C196 176.835 193.682 182.431 189.556 186.556C185.431 190.682 179.835 193 174 193C168.165 193 162.569 190.682 158.444 186.556C154.318 182.431 152 176.835 152 171L174 171H196Z" fill="black"/>
<path d="M1 1V0H0V1H1ZM501 1H502V0H501V1ZM501 501V502H502V501H501ZM1 501H0V502H1V501ZM1 2H501V0H1V2ZM500 1V501H502V1H500ZM501 500H1V502H501V500ZM2 501V1H0V501H2Z" fill="#BF9961"/>

        
<path d="M376 171C376 183.996 370.838 196.459 361.648 205.648C352.459 214.838 339.996 220 327 220C314.004 220 301.541 214.838 292.352 205.648C283.162 196.459 278 183.996 278 171L327 171H376Z" fill="white"/>
<path d="M349 171C349 176.835 346.682 182.431 342.556 186.556C338.431 190.682 332.835 193 327 193C321.165 193 315.569 190.682 311.444 186.556C307.318 182.431 305 176.835 305 171L327 171H349Z" fill="black"/>
<path d="M1 1V0H0V1H1ZM501 1H502V0H501V1ZM501 501V502H502V501H501ZM1 501H0V502H1V501ZM1 2H501V0H1V2ZM500 1V501H502V1H500ZM501 500H1V502H501V500ZM2 501V1H0V501H2Z" fill="#BF9961"/>

        
<path d="M350.49 293.658C344.622 315.56 331.691 334.912 313.702 348.715C295.714 362.518 273.674 370 251 370C228.326 370 206.286 362.518 188.298 348.715C170.309 334.912 157.378 315.56 151.51 293.658" stroke="black" stroke-width="16"/>
<path d="M1 1V0H0V1H1ZM501 1H502V0H501V1ZM501 501V502H502V501H501ZM1 501H0V502H1V501ZM1 2H501V0H1V2ZM500 1V501H502V1H500ZM501 500H1V502H501V500ZM2 501V1H0V501H2Z" fill="#BF9961"/>

        
<path d="M446 1L453.409 23.8024H477.385L457.988 37.8951L465.397 60.6976L446 46.6049L426.603 60.6976L434.012 37.8951L414.615 23.8024H438.591L446 1Z" fill="#C99100"/>
<path d="M1 1V0H0V1H1ZM501 1H502V0H501V1ZM501 501V502H502V501H501ZM1 501H0V502H1V501ZM1 2H501V0H1V2ZM500 1V501H502V1H500ZM501 500H1V502H501V500ZM2 501V1H0V501H2Z" fill="#BF9961"/>

    </svg>
